<svg version="1.2" xmlns="http://www.w3.org/2000/svg" viewBox="0 0 42 41" width="42" height="41">
	<style>
		.s0 { fill: #ffffff } 
	</style>
	<g>
		<path class="s0" d="m4.85 4.31l10.83 4.04 0.08 0.03 0.07 0.06 5.41 4.61 5.41-4.61 0.06-0.05 0.08-0.03 9.98-4.04 0.69-0.28v32.4h-1v-26.99l-2.83 13.07-0.09 0.4h-8.56l-3.51 1.85-0.24 0.13-0.23-0.14-3.29-1.84h-9.84l-0.08-0.4-3.61-17.64-0.18-0.88zm3.84 17.6h9.29l0.11 0.07 3.16 1.77 3.37-1.78 0.11-0.06h8.01l3.53-16.31-9.03 3.65-5.67 4.83-0.33 0.28-0.32-0.28-5.67-4.83-9.9-3.69zm2.73-9.1l4.88 1.7 0.18 0.06 0.1 0.17 2.55 4.67 0.52 0.96-1.07-0.23-5.95-1.27-0.29-0.07-0.08-0.28-1.49-5.1-0.27-0.93zm20.07 0.4l-1.49 5.1-0.08 0.28-0.29 0.06-5.95 1.28-1.06 0.23 0.52-0.96 2.55-4.67 0.09-0.17 0.18-0.07 4.89-1.7 0.91-0.31zm-18.35 4.74l4.59 0.98-1.93-3.54-3.79-1.32zm13.33-2.78l-1.93 3.55 4.59-0.98 1.13-3.88z"/>
	</g>
</svg>